<svg version="1" xmlns="http://www.w3.org/2000/svg" width="682.667" height="682.667" viewBox="0 0 512.000000 512.000000"><path d="M46.5 44.8c-.1.2-1.3.4-2.6.6C28.2 47.4 15 57.8 9 73c-1.1 2.9-2.2 6.7-2.3 8.4-.2 1.7-.6 3.6-1 4.3-.4.6-.2 1.3.4 1.5.9.3.8 1-.1 2.8-.9 1.6-.9 2.5-.2 2.8.7.2.7 1.3.2 3.3-.5 1.8-.5 2.9.1 2.9s.5.8-.1 2c-.8 1.4-.8 2 0 2s.8.6 0 2c-.6 1.2-.7 2-.1 2 1 0 .9 1.9-.2 3.7-.5.8-.3 1.3.3 1.3.7 0 .7.7-.1 2.2-.8 1.5-.9 2.3-.1 2.6.7.2.7 1.3.2 3.3-.5 1.8-.5 2.9.1 2.9s.5.8-.1 2c-.8 1.4-.8 2 0 2s.8.6 0 2c-.6 1.2-.7 2-.1 2 1 0 .9 1.9-.2 3.7-.5.8-.3 1.3.3 1.3.7 0 .7.7-.1 2.2-.8 1.5-.9 2.3-.1 2.6.7.2.7 1.3.2 3.3-.5 1.8-.5 2.9.1 2.9s.5.8-.1 2c-.8 1.4-.8 2 0 2s.8.6 0 2c-.6 1.2-.7 2-.1 2 1 0 .9 1.9-.2 3.7-.5.8-.3 1.3.3 1.3.7 0 .7.7-.1 2.2-.8 1.5-.9 2.3-.1 2.6.7.2.7 1.3.2 3.3-.5 1.8-.5 2.9.1 2.9s.5.8-.1 2c-.8 1.4-.8 2 0 2s.8.6 0 2c-.6 1.2-.7 2-.1 2 1 0 .9 1.9-.2 3.7-.5.8-.3 1.3.3 1.3.7 0 .7.7-.1 2.2-.8 1.5-.9 2.3-.1 2.6.7.2.7 1.3.2 3.3-.5 1.8-.5 2.9.1 2.9s.5.8-.1 2c-.8 1.4-.8 2 0 2s.8.6 0 2c-.6 1.2-.7 2-.1 2 1 0 .9 1.9-.2 3.7-.5.8-.3 1.3.3 1.3.7 0 .7.7-.1 2.2-.8 1.5-.9 2.3-.1 2.6.7.2.7 1.3.2 3.3-.5 1.8-.5 2.9.1 2.9s.5.8-.1 2c-.8 1.4-.8 2 0 2s.8.6 0 2c-.6 1.2-.7 2-.1 2 1 0 .9 1.9-.2 3.7-.5.8-.3 1.3.3 1.3.7 0 .7.7-.1 2.2-.8 1.5-.9 2.3-.1 2.6.7.2.7 1.3.2 3.3-.5 1.8-.5 2.9.1 2.9s.5.8-.1 2c-.8 1.4-.8 2 0 2s.8.6 0 2c-.6 1.2-.7 2-.1 2 1 0 .9 1.9-.2 3.7-.5.8-.3 1.3.3 1.3.7 0 .7.7-.1 2.2-.8 1.5-.9 2.3-.1 2.6.7.2.7 1.3.2 3.3-.5 1.8-.5 2.9.1 2.9s.5.8-.1 2c-.8 1.4-.8 2 0 2s.8.6 0 2c-.6 1.2-.7 2-.1 2 1 0 .9 1.9-.2 3.7-.5.8-.3 1.3.3 1.3.7 0 .7.7-.1 2.2-.8 1.5-.9 2.3-.1 2.6.7.2.7 1.3.2 3.3-.5 1.8-.5 2.9.1 2.9s.5.8-.1 2c-.8 1.4-.8 2 0 2s.8.6 0 2c-.6 1.2-.7 2-.1 2 1 0 .9 1.9-.2 3.7-.5.8-.3 1.3.3 1.3.7 0 .7.7-.1 2.2-.8 1.5-.9 2.3-.1 2.6.7.2.7 1.3.2 3.3-.5 1.8-.5 2.9.1 2.9s.5.8-.1 2c-.8 1.4-.8 2 0 2s.8.6 0 2c-.6 1.2-.7 2-.1 2 1 0 .9 1.9-.2 3.7-.5.8-.3 1.3.3 1.3.7 0 .7.7-.1 2.2-.8 1.5-.9 2.3-.1 2.6.7.2.7 1.3.2 3.3-.5 1.8-.5 2.9.1 2.9s.5.8-.1 2c-.8 1.4-.8 2 0 2s.8.6 0 2c-.6 1.2-.7 2-.1 2 1 0 .9 1.9-.2 3.7-.5.8-.3 1.3.3 1.3.7 0 .8.6 0 1.9-.6 1.2-.6 2.2-.1 2.6.6.3.9 1.3.9 2.3-.1.9.6 4.2 1.5 7.2 3.3 11.2 13.9 22.5 25.4 27.1l5.8 2.4 150.5.2c82.8.1 151.2.2 152 .3.8 0 4.4 2.8 8 6.2 11.3 10.6 20.2 18.9 33 30.8 6.8 6.3 15.3 14.3 18.9 17.7 11.5 10.8 15.4 14.3 16 14.3.4 0 .6-15.5.6-34.5V396l2.5-.1h24.5c12.1 0 23.8-.5 26-1 11.5-2.8 20.6-9.2 27-19.1 2.8-4.2 6.8-15.5 6-16.8-.3-.5-.2-1.1.2-1.3.9-.6.8-271.6-.1-276.2-.3-1.7-.7-3.7-.9-4.5-1.1-5.9-7.1-15.7-12.7-20.7-5.6-5.1-16.4-10.3-21.7-10.5-.5 0-1.6-.4-2.7-1-1.4-.8-1.7-.7-1.1.3.6.8.4 1-.4.5-1.9-1.2-10.1-1.3-10.1-.2 0 .7-.3.8-.8.1-.8-1.2-11.2-1.4-11.2-.3 0 .5-.5.8-1.1.8-.5 0-.8-.4-.5-.8.2-.4-2-.8-5-.7-3 0-5.4.4-5.4 1 0 .7-.3.7-.8 0-.8-1.2-11.2-1.4-11.2-.3 0 .5-.5.8-1.1.8-.5 0-.8-.4-.5-.8.3-.5-1-.8-2.9-.8-1.9.1-3.5.4-3.5.8 0 .5-.5.8-1.1.8-.5 0-.8-.4-.5-.8.2-.4-2-.8-5-.7-3 0-5.4.4-5.4 1 0 .7-.3.7-.8 0-.8-1.2-11.2-1.4-11.2-.3 0 .5-.5.8-1.1.8-.5 0-.8-.4-.5-.8.2-.4-2-.8-5-.7-3 0-5.4.4-5.4 1 0 .7-.3.7-.8 0-.4-.6-3.8-1-7.7-1-3.8 0-7.3.4-7.7 1-.5.7-.8.7-.8 0 0-.6-5.2-1-13.5-1-7.4 0-13.5.3-13.5.7 0 .5-.5.8-1.1.8-.5 0-.8-.4-.5-.8.2-.4-2-.8-5-.7-3 0-5.4.4-5.4 1 0 .7-.3.7-.8 0-.8-1.2-11.2-1.4-11.2-.3 0 .5-.5.8-1.1.8-.5 0-.8-.3-.5-.8.2-.4-5.6-.7-13-.7-8.2 0-13.4.4-13.4 1 0 .7-.3.7-.8 0-.4-.6-3.8-1-7.7-1-3.8 0-7.3.4-7.7 1-.5.7-.8.7-.8 0 0-.6-2.5-1-5.5-1s-5.5.3-5.5.7c0 .5-.5.8-1.1.8-.5 0-.8-.4-.5-.8.2-.4-2-.8-5-.7-3 0-5.4.4-5.4 1 0 .7-.3.7-.8 0-.8-1.2-11.2-1.4-11.2-.3 0 .5-.5.8-1.1.8-.5 0-.8-.4-.5-.8.3-.5-1-.8-2.9-.8-1.9.1-3.5.4-3.5.8 0 .5-.5.8-1.1.8-.5 0-.8-.4-.5-.8.2-.4-2-.8-5-.7-3 0-5.4.4-5.4 1 0 .7-.3.7-.8 0-.8-1.2-11.2-1.4-11.2-.3 0 .5-.5.8-1.1.8-.5 0-.8-.4-.5-.8.2-.4-2-.8-5-.7-3 0-5.4.4-5.4 1 0 .7-.3.7-.8 0-.4-.6-3.8-1-7.7-1-3.8 0-7.3.4-7.7 1-.5.7-.8.7-.8 0 0-.6-5.2-1-13.5-1-7.4 0-13.5.3-13.5.7 0 .5-.5.8-1.1.8-.5 0-.8-.4-.5-.8.2-.4-2-.8-5-.7-3 0-5.4.4-5.4 1 0 .7-.3.7-.8 0-.8-1.2-11.2-1.4-11.2-.3 0 .5-.5.8-1.1.8-.5 0-.8-.3-.5-.8.2-.4-5.6-.7-13-.7-8.2 0-13.4.4-13.4 1 0 .7-.3.7-.8 0-.4-.6-3.8-1-7.7-1-3.8 0-7.3.4-7.7 1-.5.7-.8.7-.8 0 0-.6-2.5-1-5.5-1s-5.5.3-5.5.7c0 .5-.5.8-1.1.8-.5 0-.8-.4-.5-.8.4-.7-10.2-1.1-10.9-.4zm428.4 15.7c7.5 3.4 13.2 9.4 16.1 17.2 2 5.4 2 6.5 1.8 144.1l-.3 138.7-2.1 4.6c-3.6 7.8-11.2 14.8-17.9 16.6-6.1 1.5-12 1.8-37.2 1.8l-29.3-.1-.2 26.7-.3 26.8-7.1-6.7c-7.7-7.3-27.4-25.7-33.3-31.1-2-1.8-6.5-6.1-10-9.5l-6.4-6.1-153.1-.1-153.1-.1-5.5-2.6c-8.2-3.7-14.7-11.3-17-19.5-.7-3-1.1-43.4-1.1-140.9.1-75.3.3-137.7.5-138.9 1.5-7.2 8.5-16.6 15.1-20 7.6-3.9 5.2-3.9 223.1-3.8l211 .1 6.3 2.8z"/><path d="M66.5 121.8c4.3 3.9 14.8 13.5 24 21.7 1.2 1.1 6 5.4 10.6 9.5s10.6 9.5 13.4 12c2.7 2.5 5.2 4.7 5.5 5 .3.3 4.8 4.3 10 9s9.7 8.7 10 9c.3.3 3 2.7 6 5.5 16 14.5 23.6 21.2 26.2 23.4 1.6 1.3 4.8 4.3 7.2 6.7 4.2 4 4.5 4.2 6.3 2.5 1-.9 6.5-5.9 12.3-11.1 5.8-5.1 10.7-9.6 11-9.9.3-.3 4.3-4 9-8.1 4.6-4.1 9.4-8.4 10.6-9.5 1.1-1.1 5.4-4.9 9.4-8.5 4-3.6 8.3-7.4 9.4-8.5 1.2-1.1 5.9-5.4 10.6-9.5 4.6-4.1 9.1-8.2 10-9 .9-.8 4.1-3.7 7.1-6.4 13.2-11.8 22.7-20.4 26.9-24.3l4.5-4.3h-245l5 4.8zM45.5 216.6c0 47 .3 85.4.6 85.4.6 0 7.2-5.6 12.5-10.5.6-.6 4.6-4.2 8.9-8 4.3-3.9 8.3-7.5 8.9-8 .6-.6 5.2-4.6 10.1-9 5-4.4 9.2-8.2 9.5-8.5.3-.3 4.5-4.1 9.4-8.5 5-4.4 9.7-8.7 10.6-9.5.9-.8 5.4-4.9 10-9s10-8.9 11.9-10.7l3.5-3.2-3.9-3.5c-6.2-5.2-7.6-6.5-17.5-15.6-5.1-4.7-10.2-9.3-11.4-10.3-1.2-1-4.1-3.7-6.6-6s-8.6-7.8-13.5-12.2c-5-4.4-11.5-10.3-14.5-13.1-3-2.8-7.5-6.8-9.9-9-2.4-2.1-6.9-6.3-10-9.2-3.1-2.9-6.3-5.7-7.1-6.2-1.3-.7-1.5 9-1.5 84.6zM320.4 132.4c-1 1-11.6 10.6-21.3 19.2-2.4 2.2-5.8 5.2-7.5 6.9-1.8 1.6-7 6.4-11.6 10.5s-9.5 8.6-10.9 9.9c-4.9 4.4-16.6 14.9-18.7 16.8-1.2 1-5.9 5.3-10.5 9.5s-9.5 8.6-10.9 9.8l-2.5 2.2 6 5.5c3.3 3 8.7 7.8 11.9 10.6 3.2 2.9 7.3 6.5 9.1 8.2 1.8 1.6 6.3 5.7 10 9 3.8 3.3 7.3 6.4 7.9 7 .7.5 5.4 4.8 10.6 9.5 8.2 7.3 14.1 12.6 18.4 16.5.6.5 5.2 4.6 10.1 9 5 4.4 9.3 8.4 9.7 9 .4.5.9.7 1.2.4.6-.5.9-169.9.4-170.4-.2-.2-.8.2-1.4.9zM345 168.1v6.9h63.5c62.2 0 63.5 0 65.5-2 1.1-1.1 2-2.7 2-3.5 0-2.9-2.3-6.4-4.9-7.4-1.7-.7-24.5-1-64.3-1H345v7zM345.5 193.9c-.3.2-.5 3.3-.5 6.8v6.3l5.8.1c29 .3 97.5-.1 99-.5 2.6-.9 4.4-5 3.3-7.9-2.1-5.4-.4-5.2-55.8-5.2-28.3-.1-51.6.1-51.8.4zM345.5 225.9c-.3.2-.5 3.3-.5 6.8v6.3l6.3.1c3.4 0 22.3 0 42 .1 32.7 0 36-.2 37.8-1.8 2.5-2.2 2.4-6.9-.1-9.4-1.1-1.1-2.3-2.1-2.7-2.1-2.3-.4-82.5-.4-82.8 0zM151.4 235.8c-2.8 2.6-8.4 7.6-12.4 11.2-4 3.6-8.5 7.6-10 9-1.5 1.4-6 5.4-10 9-4 3.6-7.8 7-8.4 7.5-.6.6-5.8 5.3-11.6 10.5s-11 9.9-11.6 10.5c-.6.5-4.9 4.4-9.5 8.5s-10.2 9.2-12.4 11.2l-4 3.7h245l-4.6-4.2c-5.2-4.8-20.3-18.5-22.9-20.7-3.4-3-15.6-13.9-18.1-16.1-1.4-1.3-6-5.6-10.4-9.4-4.3-3.9-9-8.1-10.5-9.5-1.5-1.4-6.3-5.7-10.6-9.5-4.3-3.9-10.1-9.1-12.8-11.7-5.8-5.4-4.5-5.8-16.7 5.3-4.6 4.2-10.1 9.2-12.3 11.1l-3.8 3.4-3.3-3c-4.4-4.3-20.7-18.8-22.5-20.3-1.2-.9-2.5-.3-6.6 3.5zM346.2 258c-.4.3-.7 3.3-.8 6.7 0 5.7.2 6.3 2 6.4 1.2.1 12 .2 24.1.3 15.8.1 22.7-.2 24.6-1.1 4.5-2.1 4.3-8.9-.3-11.4-1.6-.9-9-1.3-25.6-1.4-12.8 0-23.6.2-24 .5z"/></svg>